<svg fill="none" height="512" viewBox="0 0 24 24" width="512" xmlns="http://www.w3.org/2000/svg">
	<path d="m2.5 11c0-1.65685 1.34315-3 3-3h13c1.6569 0 3 1.34315 3 3v8c0 1.6569-1.3431 3-3 3h-13c-1.65685 0-3-1.3431-3-3z" fill="currentColor"/>
    <path d="m16.2526 4.43484v3.30133c0 .55228-.4478 1-1 1h-8.87425c-1.46616 0-2.72079 1.05242-2.97584 2.49623-.01606.0909-.14995.0791-.14995-.0131v-1.34535c0-1.25769.78449-2.38187 1.96496-2.81579l9.68998-3.56192c.6528-.23994 1.3451.24315 1.3451.9386z" stroke="currentColor" stroke-linecap="round" stroke-width="1.5" fill="none"/>
</svg>