<svg width="480" height="360" viewBox="0 0 480 360" fill="none" xmlns="http://www.w3.org/2000/svg">
<g clip-path="url(#clip0_1_25)">
<path opacity="0.2" d="M0 198.78C0 240.238 14.945 278.016 39.539 306.566C67.753 339.331 108.667 359.931 154.273 360C173.644 360.043 192.837 356.294 210.768 348.964C219.819 345.265 229.95 345.69 238.716 350.071C249.258 355.346 260.885 358.089 272.673 358.081C277.696 358.081 282.615 357.587 287.373 356.648C300.953 353.978 313.313 347.658 323.463 338.708C329.841 333.081 338.01 330.252 346.36 330.262H346.502C374.091 330.262 399.717 321.53 420.994 306.566C440.015 293.206 455.548 274.87 465.898 253.342C474.92 234.58 480 213.388 480 190.958C480 114.028 420.226 51.653 346.502 51.653C338.986 51.653 331.622 52.316 324.439 53.552C305.418 21.42 271.355 4.22381e-05 232.499 4.22381e-05C216.59 -0.0143187 200.892 3.63353 186.619 10.661C173.379 17.148 161.608 26.366 151.979 37.6C119.281 38.144 89.048 49.29 64.303 67.891C25.351 97.155 0 144.882 0 198.781V198.78Z" fill="url(#paint0_linear_1_25)"/>
<path opacity="0.24" fill-rule="evenodd" clip-rule="evenodd" d="M109.224 97.41L110.036 99.237L110.016 99.246L109.955 99.273L109.707 99.385C109.488 99.485 109.163 99.635 108.739 99.834L107.89 98.023C108.32 97.821 108.652 97.668 108.878 97.566L109.134 97.449L109.2 97.419L109.224 97.409V97.41ZM102.453 100.688C103.45 100.181 104.354 99.73 105.153 99.338L106.035 101.133C105.244 101.521 104.348 101.968 103.36 102.47L102.453 100.688ZM97.097 103.496C98.027 102.994 98.917 102.521 99.762 102.078L100.691 103.849C99.853 104.288 98.971 104.758 98.047 105.256L97.097 103.496ZM91.823 106.423C92.724 105.91 93.602 105.416 94.453 104.944L95.423 106.693C94.579 107.161 93.708 107.651 92.814 108.161L91.823 106.423ZM86.591 109.488C87.478 108.955 88.349 108.438 89.203 107.938L90.213 109.663C89.366 110.16 88.501 110.673 87.622 111.202L86.591 109.488ZM81.474 112.648C82.335 112.102 83.187 111.569 84.029 111.049L85.079 112.751C84.245 113.267 83.399 113.795 82.545 114.337L81.474 112.648ZM76.409 115.949C77.2439 115.39 78.0822 114.836 78.924 114.288L80.016 115.963C79.1812 116.507 78.3499 117.056 77.522 117.611L76.409 115.949ZM71.431 119.38C72.261 118.791 73.091 118.212 73.915 117.644L75.049 119.29C74.232 119.854 73.411 120.427 72.588 121.011L71.431 119.38ZM66.558 122.94C67.3624 122.334 68.1714 121.734 68.985 121.14L70.165 122.755C69.365 123.34 68.563 123.934 67.761 124.537L66.558 122.94ZM61.787 126.65C62.574 126.018 63.363 125.394 64.153 124.78L65.381 126.359C64.599 126.967 63.818 127.584 63.039 128.209L61.787 126.65ZM57.136 130.517C57.901 129.858 58.67 129.207 59.443 128.565L60.722 130.103C59.958 130.738 59.197 131.381 58.441 132.032L57.136 130.517ZM52.626 134.552C53.365 133.864 54.111 133.184 54.862 132.512L56.195 134.003C55.453 134.667 54.717 135.338 53.987 136.016L52.626 134.552ZM48.279 138.767C48.9881 138.048 49.7051 137.338 50.43 136.635L51.822 138.072C51.107 138.764 50.4 139.464 49.702 140.172L48.279 138.767ZM44.122 143.178C44.796 142.427 45.481 141.683 46.175 140.947L47.63 142.318C46.947 143.043 46.274 143.775 45.611 144.514L44.122 143.178ZM40.193 147.801C40.826 147.013 41.472 146.233 42.129 145.46L43.653 146.755C43.0089 147.512 42.3755 148.278 41.753 149.053L40.193 147.801ZM36.536 152.649C37.1204 151.821 37.7182 151.003 38.329 150.194L39.925 151.399C39.325 152.193 38.74 152.994 38.171 153.802L36.536 152.649ZM33.208 157.733C33.7313 156.867 34.2704 156.01 34.825 155.163L36.498 156.26C35.9567 157.086 35.4306 157.922 34.92 158.767L33.208 157.733ZM30.268 163.074C30.718 162.167 31.19 161.268 31.682 160.376L33.434 161.341C32.9571 162.205 32.4987 163.08 32.059 163.964L30.268 163.074ZM27.803 168.657C28.169 167.709 28.558 166.768 28.971 165.834L30.801 166.642C30.401 167.548 30.023 168.459 29.669 169.377L27.803 168.657ZM25.9 174.465C26.165 173.481 26.458 172.503 26.776 171.533L28.676 172.157C28.369 173.092 28.0872 174.035 27.831 174.985L25.9 174.465ZM24.647 180.458C24.797 179.446 24.978 178.44 25.187 177.441L27.145 177.851C26.9433 178.813 26.7699 179.78 26.625 180.752L24.647 180.458ZM24.18 185.035C24.208 184.522 24.245 184.011 24.289 183.5L26.281 183.674C26.239 184.163 26.204 184.654 26.177 185.146C26.149 185.642 26.137 186.132 26.14 186.615L24.14 186.629C24.137 186.103 24.15 185.572 24.18 185.035ZM25.002 192.784C24.7163 191.776 24.5015 190.748 24.359 189.71L26.341 189.438C26.472 190.397 26.669 191.33 26.926 192.239L25.002 192.784ZM27.5 198.483C26.9588 197.592 26.4764 196.667 26.056 195.713L27.886 194.908C28.268 195.775 28.71 196.621 29.21 197.446L27.5 198.483ZM31.277 203.353C30.5649 202.612 29.891 201.836 29.258 201.026L30.836 199.796C31.4268 200.552 32.056 201.277 32.721 201.969L31.277 203.353ZM35.879 207.401C35.0731 206.796 34.2896 206.161 33.53 205.499L34.846 203.993C35.552 204.61 36.298 205.213 37.081 205.802L35.879 207.401ZM40.969 210.762C40.0949 210.252 39.2346 209.72 38.389 209.164L39.489 207.493C40.3045 208.029 41.1341 208.543 41.977 209.035L40.969 210.762ZM46.34 213.585C45.4257 213.152 44.5202 212.7 43.624 212.23L44.553 210.459C45.41 210.908 46.293 211.348 47.198 211.778L46.34 213.585ZM51.882 215.993C50.932 215.614 50 215.227 49.088 214.831L49.883 212.997C50.777 213.384 51.69 213.764 52.623 214.135L51.882 215.993ZM346.739 213.399C346.983 213.5 347.337 213.652 347.787 213.856L346.959 215.677C346.549 215.49 346.135 215.312 345.718 215.143L345.657 215.118L345.643 215.113L345.64 215.112L345.997 214.178L346.353 213.244H346.354L346.356 213.245L346.362 213.247L346.383 213.255L346.458 213.285C346.523 213.31 346.617 213.348 346.739 213.399ZM57.533 218.079C56.573 217.75 55.627 217.415 54.696 217.072L55.388 215.195C56.303 215.532 57.234 215.863 58.181 216.187L57.533 218.079ZM350.548 215.214C351.355 215.639 352.256 216.137 353.23 216.711L352.214 218.434C351.36 217.93 350.493 217.447 349.616 216.984L350.548 215.214ZM63.262 219.912C62.297 219.623 61.344 219.329 60.403 219.028L61.012 217.123C61.94 217.419 62.882 217.71 63.836 217.996L63.262 219.912ZM355.827 218.322C356.68 218.878 357.521 219.453 358.349 220.046L357.184 221.672C356.38 221.096 355.564 220.538 354.735 219.998L355.827 218.322ZM69.05 221.541C68.083 221.285 67.126 221.024 66.18 220.758L66.72 218.832C67.658 219.096 68.605 219.354 69.562 219.608L69.05 221.541ZM74.883 223.005C73.906 222.772 72.938 222.536 71.978 222.296L72.464 220.356C73.416 220.594 74.376 220.828 75.345 221.059L74.883 223.005ZM80.75 224.331C79.762 224.118 78.78 223.902 77.806 223.682L78.246 221.731C79.214 221.95 80.189 222.165 81.171 222.376L80.75 224.331ZM360.807 221.892C361.607 222.521 362.392 223.168 363.163 223.832L361.857 225.347C361.109 224.702 360.347 224.074 359.571 223.464L360.807 221.892ZM86.623 225.54C85.6375 225.346 84.6528 225.148 83.669 224.945L84.072 222.986C85.045 223.187 86.024 223.384 87.009 223.577L86.623 225.54ZM92.503 226.652C91.518 226.473 90.536 226.291 89.559 226.106L89.93 224.141C90.903 224.325 91.88 224.506 92.861 224.684L92.503 226.652ZM98.407 227.687C97.424 227.52 96.444 227.352 95.467 227.181L95.812 225.211C96.785 225.381 97.762 225.549 98.742 225.715L98.407 227.687ZM365.438 225.886C366.182 226.589 366.909 227.31 367.619 228.048L366.177 229.434C365.489 228.719 364.785 228.021 364.064 227.339L365.438 225.886ZM104.326 228.657C103.337 228.5 102.35 228.341 101.367 228.18L101.69 226.206C102.671 226.367 103.654 226.525 104.64 226.682L104.326 228.657ZM110.245 229.573C109.255 229.424 108.267 229.273 107.28 229.12L107.586 227.144C108.57 227.296 109.555 227.446 110.543 227.595L110.245 229.573ZM116.165 230.446C115.178 230.303 114.19 230.159 113.204 230.014L113.496 228.035C114.48 228.18 115.465 228.324 116.451 228.466L116.165 230.446ZM122.094 231.286C121.105 231.149 120.117 231.01 119.129 230.869L119.41 228.889L122.37 229.306L122.094 231.286ZM128.021 232.104C127.034 231.969 126.045 231.834 125.056 231.697L125.329 229.716C126.317 229.852 127.305 229.988 128.291 230.122L128.021 232.104ZM369.685 230.304C370.357 231.074 371.009 231.861 371.642 232.663L370.071 233.901C369.459 233.125 368.828 232.364 368.178 231.619L369.685 230.304ZM133.945 232.907L130.988 232.507L131.257 230.525L134.213 230.925L133.945 232.907ZM139.88 233.708L136.916 233.308L137.183 231.326L140.148 231.726L139.88 233.708ZM145.808 234.513L142.831 234.107L143.1 232.125L146.08 232.532L145.808 234.513ZM151.723 235.334L148.761 234.92L149.036 232.939C150.029 233.077 151.018 233.215 152.002 233.354L151.723 235.334ZM157.619 236.182C156.648 236.039 155.671 235.897 154.689 235.756L154.973 233.776C155.958 233.918 156.937 234.06 157.91 234.203L157.619 236.182ZM163.541 237.077C162.569 236.926 161.589 236.775 160.601 236.626L160.9 234.649C161.89 234.798 162.873 234.949 163.849 235.101L163.541 237.077ZM373.479 235.12C374.07 235.956 374.64 236.806 375.188 237.671L373.498 238.74C372.969 237.905 372.419 237.083 371.847 236.277L373.479 235.12ZM169.445 238.031C168.471 237.868 167.487 237.706 166.493 237.545L166.812 235.571C167.81 235.732 168.798 235.895 169.777 236.059L169.445 238.031ZM175.326 239.066C174.338 238.884 173.35 238.706 172.361 238.532L172.707 236.562C173.713 236.739 174.707 236.918 175.689 237.099L175.326 239.066ZM181.176 240.209C180.204 240.008 179.217 239.81 178.215 239.614L178.598 237.651C179.607 237.848 180.602 238.048 181.582 238.251L181.176 240.209ZM186.986 241.5C186.028 241.272 185.051 241.047 184.054 240.826L184.487 238.873C185.493 239.096 186.482 239.324 187.451 239.555L186.986 241.5ZM192.736 242.997C191.772 242.723 190.805 242.46 189.835 242.209L190.337 240.273C191.343 240.534 192.325 240.8 193.284 241.073L192.736 242.997ZM376.762 240.308C377.256 241.189 377.734 242.095 378.193 243.026L376.399 243.91C375.962 243.023 375.502 242.149 375.018 241.287L376.762 240.308ZM198.375 244.785C197.428 244.449 196.475 244.131 195.517 243.829L196.119 241.922C197.126 242.239 198.102 242.565 199.045 242.9L198.375 244.785ZM203.777 246.999C202.9 246.582 202.011 246.191 201.112 245.825L201.867 243.973C202.803 244.353 203.728 244.761 204.64 245.195L203.777 246.999ZM379.477 245.816C379.874 246.744 380.252 247.696 380.609 248.67L378.731 249.357C378.391 248.429 378.027 247.511 377.638 246.603L379.477 245.816ZM207.559 249.098C207.172 248.845 206.778 248.603 206.379 248.37L207.387 246.643C207.825 246.898 208.247 247.158 208.653 247.424C209.039 247.676 209.441 247.93 209.859 248.187L208.814 249.892C208.392 249.633 207.974 249.368 207.559 249.098ZM214.233 252.893C213.322 252.432 212.418 251.955 211.523 251.463L212.487 249.711C213.326 250.173 214.21 250.639 215.137 251.109L214.233 252.893ZM381.587 251.579C381.882 252.543 382.157 253.528 382.409 254.534L380.469 255.02C380.229 254.062 379.964 253.11 379.675 252.166L381.587 251.579ZM219.821 255.543C218.843 255.107 217.895 254.671 216.979 254.238L217.835 252.43C218.737 252.857 219.671 253.286 220.636 253.717L219.821 255.543ZM225.445 257.932C224.468 257.536 223.513 257.14 222.581 256.744L223.362 254.903C224.284 255.294 225.229 255.686 226.196 256.078L225.445 257.932ZM231.147 260.151C230.168 259.785 229.205 259.417 228.26 259.05L228.986 257.186C229.922 257.55 230.877 257.914 231.849 258.278L231.147 260.151ZM383.078 257.524C383.273 258.512 383.445 259.518 383.595 260.543L381.616 260.832C381.473 259.854 381.307 258.88 381.116 257.911L383.078 257.524ZM236.905 262.233C235.932 261.893 234.961 261.548 233.992 261.198L234.672 259.317C235.622 259.66 236.587 260.003 237.565 260.345L236.905 262.233ZM242.698 264.194C241.709 263.869 240.732 263.543 239.766 263.217L240.408 261.322C241.367 261.647 242.339 261.971 243.321 262.293L242.698 264.194ZM248.506 266.045C247.529 265.742 246.553 265.436 245.578 265.125L246.185 263.22C247.146 263.526 248.117 263.831 249.097 264.135L248.506 266.045ZM383.964 263.583C384.013 264.092 384.057 264.606 384.095 265.125C384.137 265.685 384.148 266.246 384.127 266.807L382.129 266.732C382.146 266.261 382.137 265.774 382.1 265.271C382.064 264.772 382.022 264.274 381.973 263.776L383.964 263.583ZM254.348 267.805C253.372 267.519 252.396 267.229 251.422 266.936L251.999 265.021C252.962 265.311 253.933 265.599 254.91 265.885L254.348 267.805ZM260.223 269.479C259.241 269.207 258.266 268.933 257.296 268.656L257.844 266.733C258.809 267.008 259.78 267.281 260.757 267.552L260.223 269.479ZM266.125 271.072C265.143 270.814 264.162 270.553 263.182 270.289L263.703 268.358C264.675 268.62 265.652 268.88 266.633 269.137L266.125 271.072ZM383.606 270.034C383.291 271.091 382.831 272.099 382.241 273.03L380.55 271.961C381.043 271.185 381.426 270.344 381.689 269.462L383.606 270.034ZM272.05 272.584C271.057 272.338 270.068 272.089 269.082 271.837L269.577 269.899C270.558 270.15 271.543 270.398 272.532 270.643L272.05 272.584ZM277.987 274.016C276.992 273.783 276 273.547 275.01 273.308L275.479 271.364C276.464 271.602 277.452 271.836 278.443 272.068L277.987 274.016ZM283.941 275.368C282.947 275.149 281.954 274.927 280.961 274.701L281.404 272.751C282.391 272.975 283.38 273.196 284.371 273.414L283.941 275.368ZM289.917 276.64C288.92 276.435 287.924 276.226 286.928 276.014L287.344 274.058C288.336 274.269 289.328 274.477 290.32 274.681L289.917 276.64ZM380.161 275.553C379.378 276.296 378.528 276.964 377.621 277.549L376.53 275.873C377.332 275.356 378.085 274.766 378.777 274.109L380.161 275.553ZM295.911 277.83C294.911 277.639 293.91 277.444 292.909 277.245L293.299 275.283C294.295 275.481 295.291 275.675 296.286 275.865L295.911 277.83ZM301.914 278.931C300.915 278.756 299.915 278.576 298.913 278.392L299.274 276.425C300.271 276.608 301.267 276.787 302.261 276.962L301.914 278.931ZM374.814 279.099C373.903 279.526 372.936 279.918 371.917 280.277L371.254 278.39C372.175 278.068 373.08 277.7 373.964 277.288L374.814 279.099ZM307.942 279.943C306.942 279.783 305.939 279.619 304.935 279.45L305.265 277.478C306.265 277.646 307.262 277.809 308.257 277.968L307.942 279.943ZM313.993 280.856C312.984 280.712 311.976 280.564 310.968 280.412L311.267 278.435C312.273 278.587 313.276 278.734 314.274 278.876L313.993 280.856ZM368.955 281.188C367.976 281.451 366.959 281.689 365.905 281.904L365.505 279.944C366.489 279.744 367.467 279.515 368.437 279.256L368.955 281.188ZM320.059 281.66C319.042 281.535 318.026 281.405 317.01 281.27L317.273 279.288C318.288 279.423 319.298 279.552 320.303 279.675L320.059 281.66ZM326.135 282.344C325.115 282.24 324.096 282.131 323.077 282.016L323.301 280.029C324.32 280.144 325.332 280.252 326.338 280.354L326.135 282.344ZM362.864 282.445C361.875 282.597 360.859 282.732 359.817 282.851L359.591 280.863C360.583 280.751 361.572 280.62 362.559 280.468L362.864 282.445ZM332.222 282.891C331.205 282.812 330.189 282.727 329.174 282.636L329.354 280.644C330.369 280.735 331.377 280.82 332.377 280.897L332.222 282.891ZM338.321 283.281C337.309 283.231 336.297 283.174 335.285 283.108L335.413 281.113C336.425 281.177 337.428 281.235 338.42 281.284L338.321 283.281ZM356.714 283.148C355.723 283.227 354.712 283.292 353.682 283.344L353.581 281.347C354.574 281.296 355.565 281.232 356.556 281.154L356.714 283.148ZM344.435 283.485C343.425 283.469 342.416 283.444 341.407 283.41L341.474 281.411C342.484 281.445 343.482 281.47 344.467 281.486L344.435 283.485ZM350.566 283.462C349.573 283.487 348.564 283.501 347.541 283.505L347.534 281.505C348.543 281.501 349.537 281.487 350.515 281.462L350.566 283.462Z" fill="#0F1A1C"/>
<path d="M47.943 122.571L96.231 273.55C97.0309 275.987 98.6294 278.084 100.768 279.5C102.907 280.916 105.461 281.57 108.017 281.355L171.343 275.995L319.356 263.351C321.597 263.178 323.736 262.342 325.5 260.948C327.264 259.555 328.573 257.668 329.26 255.528C329.716 254.107 329.887 252.61 329.763 251.123C329.657 250.055 329.412 249.005 329.034 248.001L317.196 216.78L295.784 159.542L279.185 115.312C278.37 113.149 276.915 111.285 275.014 109.97C273.113 108.654 270.856 107.95 268.544 107.95H58.741C55.7326 107.95 52.8475 109.145 50.7202 111.273C48.5929 113.4 47.3975 116.285 47.397 119.293C47.413 120.407 47.597 121.512 47.943 122.571Z" fill="white"/>
<path d="M47.943 122.571L96.231 273.55C97.0309 275.987 98.6294 278.084 100.768 279.5C102.907 280.916 105.461 281.57 108.017 281.355L171.343 275.995L319.356 263.351C321.597 263.178 323.736 262.342 325.5 260.948C327.264 259.555 328.573 257.668 329.26 255.528C329.716 254.107 329.887 252.61 329.763 251.123C329.657 250.055 329.412 249.005 329.034 248.001L317.196 216.78L295.784 159.542L279.185 115.312C278.37 113.149 276.915 111.285 275.014 109.97C273.113 108.654 270.856 107.95 268.544 107.95H58.741C55.7326 107.95 52.8475 109.145 50.7202 111.273C48.5929 113.4 47.3975 116.285 47.397 119.293C47.413 120.407 47.597 121.512 47.943 122.571Z" fill="white"/>
<path d="M170.575 276.06L108.017 281.355C105.461 281.57 102.907 280.916 100.769 279.5C98.6303 278.083 97.0319 275.987 96.232 273.55L47.942 122.571C47.5955 121.512 47.4114 120.407 47.396 119.293C47.3956 117.803 47.6888 116.328 48.2587 114.952C48.8287 113.575 49.6643 112.324 50.7178 111.271C51.7712 110.218 53.022 109.382 54.3984 108.812C55.7749 108.243 57.2502 107.949 58.74 107.95H116.193L170.575 276.06Z" fill="url(#paint1_linear_1_25)"/>
<path d="M227.879 191.221C230.492 191.059 232.247 188.472 231.432 185.984L222.949 160.089C222.676 159.257 222.138 158.537 221.416 158.041C220.695 157.544 219.831 157.297 218.956 157.339L157.335 160.3C154.669 160.428 152.874 163.082 153.747 165.604L162.995 192.321C163.281 193.147 163.83 193.856 164.557 194.341C165.285 194.826 166.151 195.058 167.023 195.004L227.879 191.221Z" fill="#0F1A1C"/>
<path d="M244.879 239.221C247.492 239.059 249.247 236.472 248.432 233.984L239.949 208.089C239.676 207.257 239.138 206.537 238.416 206.041C237.695 205.544 236.831 205.297 235.956 205.339L174.335 208.3C171.669 208.428 169.874 211.082 170.747 213.604L179.995 240.321C180.281 241.147 180.83 241.856 181.557 242.341C182.285 242.826 183.151 243.058 184.023 243.004L244.879 239.221Z" fill="#0F1A1C"/>
<g opacity="0.4" filter="url(#filter0_f_1_25)">
<path d="M253.012 134.539L268.96 187.432C269.195 188.284 269.706 189.034 270.412 189.566C271.117 190.098 271.979 190.381 272.863 190.372L312.422 189.23C312.74 189.221 313.051 189.136 313.33 188.982C313.609 188.829 313.847 188.611 314.024 188.347C314.202 188.083 314.314 187.78 314.351 187.464C314.388 187.148 314.35 186.828 314.238 186.53L294.237 133.13C294.101 132.767 293.863 132.452 293.552 132.222C293.24 131.992 292.868 131.858 292.482 131.835L256.576 129.726C255.985 129.701 255.398 129.821 254.864 130.075C254.331 130.33 253.868 130.712 253.517 131.187C253.165 131.662 252.935 132.216 252.847 132.8C252.759 133.385 252.816 133.982 253.012 134.539Z" fill="#0F1A1C"/>
</g>
<path d="M330.082 174.424L313.587 127.723C313.334 126.973 312.867 126.314 312.242 125.828C311.618 125.343 310.864 125.051 310.075 124.991L240.557 120.88C239.965 120.862 239.378 120.987 238.845 121.245C238.312 121.503 237.849 121.886 237.496 122.361C237.143 122.836 236.91 123.39 236.818 123.975C236.726 124.56 236.776 125.158 236.966 125.719L252.915 178.639C253.153 179.491 253.663 180.242 254.367 180.778C255.072 181.313 255.932 181.604 256.817 181.605L326.908 179.497C327.493 179.464 328.062 179.29 328.566 178.992C329.07 178.693 329.495 178.278 329.806 177.781C330.117 177.284 330.304 176.72 330.352 176.136C330.4 175.552 330.308 174.965 330.082 174.424Z" fill="white"/>
<path d="M295.375 166.976C295.853 168.213 296.093 168.832 296.604 169.182C297.115 169.533 297.778 169.533 299.105 169.533H299.425C302.073 169.533 303.397 169.533 303.993 168.663C304.589 167.794 304.111 166.559 303.156 164.089L296.729 147.477C296.25 146.239 296.01 145.621 295.499 145.27C294.988 144.92 294.325 144.92 292.998 144.92H292.678C290.03 144.92 288.706 144.92 288.11 145.79C287.514 146.659 287.992 147.894 288.947 150.363L295.375 166.976Z" fill="#0F1A1C"/>
<g opacity="0.48">
<path d="M306.33 166.969C306.808 168.21 307.047 168.83 307.558 169.181C308.07 169.532 308.734 169.532 310.063 169.532H310.377C313.026 169.532 314.35 169.532 314.946 168.663C315.542 167.793 315.064 166.558 314.107 164.089L312.521 159.99C312.042 158.753 311.803 158.135 311.292 157.785C310.781 157.434 310.117 157.434 308.791 157.434H308.486C305.842 157.434 304.52 157.434 303.924 158.302C303.328 159.17 303.803 160.404 304.753 162.871L306.33 166.969Z" fill="url(#paint2_linear_1_25)"/>
<path d="M284.397 166.971C284.875 168.211 285.114 168.831 285.625 169.182C286.137 169.533 286.801 169.533 288.13 169.533H288.445C291.093 169.533 292.418 169.533 293.013 168.663C293.609 167.793 293.131 166.558 292.175 164.088L289.47 157.102C288.991 155.865 288.752 155.247 288.241 154.897C287.73 154.547 287.066 154.547 285.74 154.547H285.437C282.792 154.547 281.47 154.547 280.874 155.415C280.278 156.283 280.754 157.517 281.705 159.985L284.397 166.971Z" fill="url(#paint3_linear_1_25)"/>
<path d="M273.442 166.976C273.921 168.213 274.16 168.832 274.671 169.182C275.182 169.533 275.846 169.533 277.173 169.533H277.493C280.141 169.533 281.465 169.533 282.061 168.663C282.657 167.794 282.179 166.559 281.223 164.089L271.778 139.672C271.299 138.434 271.06 137.816 270.549 137.465C270.038 137.115 269.374 137.115 268.047 137.115H267.727C265.079 137.115 263.755 137.115 263.159 137.984C262.563 138.854 263.041 140.088 263.996 142.558L273.442 166.976Z" fill="url(#paint4_linear_1_25)"/>
<path d="M262.463 166.974C262.942 168.213 263.181 168.832 263.692 169.182C264.203 169.533 264.867 169.533 266.194 169.533H266.516C269.163 169.533 270.486 169.533 271.082 168.664C271.678 167.795 271.201 166.56 270.247 164.091L257.312 130.619C256.833 129.381 256.594 128.762 256.083 128.412C255.572 128.061 254.908 128.061 253.581 128.061H253.259C250.612 128.061 249.289 128.061 248.693 128.93C248.097 129.799 248.574 131.034 249.528 133.503L262.463 166.974Z" fill="url(#paint5_linear_1_25)"/>
</g>
<g opacity="0.4">
<path fill-rule="evenodd" clip-rule="evenodd" d="M78.02 155.171C76.9812 151.318 77.4973 147.211 79.4571 143.735C81.4169 140.259 84.6635 137.691 88.4979 136.585C92.3322 135.479 96.4474 135.924 99.9574 137.823C103.467 139.721 106.091 142.923 107.264 146.737C108.436 150.552 108.064 154.674 106.226 158.217C104.389 161.759 101.234 164.438 97.4404 165.677C93.647 166.916 89.5187 166.616 85.9447 164.84C82.3707 163.065 79.6369 159.957 78.332 156.186L78.176 155.691L78.02 155.171ZM93.214 150.982L89.624 139.457C90.6373 139.144 91.6858 138.961 92.745 138.91C95.3944 138.811 98.003 139.585 100.17 141.113C102.337 142.64 103.942 144.837 104.739 147.366C105.051 148.38 105.235 149.428 105.285 150.488C105.318 151.545 105.222 152.602 104.999 153.636C104.539 155.703 103.533 157.608 102.085 159.152C100.658 160.723 98.837 161.884 96.8108 162.515C94.7846 163.146 92.6267 163.224 90.56 162.742C89.5412 162.504 88.5543 162.146 87.62 161.675C86.6802 161.179 85.8061 160.567 85.018 159.854C83.482 158.432 82.3356 156.641 81.688 154.651L93.214 150.982ZM111.296 251.773C110.514 247.996 111.187 244.063 113.181 240.761C115.175 237.459 118.342 235.033 122.049 233.967C125.756 232.901 129.729 233.275 133.172 235.014C136.615 236.753 139.274 239.728 140.617 243.344V243.838C140.617 243.994 140.617 244.176 140.799 244.332C141.83 248.037 141.425 251.995 139.665 255.414C137.905 258.834 134.919 261.463 131.305 262.778C127.691 264.092 123.713 263.994 120.168 262.504C116.623 261.014 113.77 258.241 112.18 254.739C112.102 254.492 112.031 254.244 111.959 253.997C111.889 253.749 111.815 253.502 111.738 253.256C111.677 253.059 111.62 252.86 111.567 252.661C111.49 252.361 111.399 252.065 111.296 251.773ZM122.483 237.073L126.229 248.547L126.308 248.521L130.054 260.021C131.546 259.523 132.925 258.736 134.113 257.705C135.3 256.674 136.273 255.418 136.975 254.011C137.452 253.073 137.802 252.076 138.015 251.045C138.245 250.021 138.332 248.97 138.275 247.923C138.139 245.267 137.129 242.73 135.402 240.707C133.675 238.683 131.329 237.287 128.727 236.735C126.651 236.313 124.501 236.43 122.483 237.073ZM100.21 187.509C98.7919 188.927 97.6669 190.611 96.8995 192.464C96.132 194.317 95.737 196.302 95.737 198.308V199.374C95.737 201.38 96.132 203.365 96.8995 205.218C97.667 207.071 98.7919 208.755 100.21 210.173C101.628 211.591 103.312 212.716 105.165 213.483C107.018 214.251 109.003 214.646 111.009 214.646C113.015 214.646 115 214.251 116.853 213.483C118.706 212.716 120.39 211.591 121.808 210.173C123.226 208.755 124.351 207.071 125.118 205.218C125.886 203.365 126.281 201.38 126.281 199.374V198.308C126.281 195.287 125.386 192.334 123.708 189.822C122.03 187.311 119.645 185.353 116.854 184.197C114.063 183.041 110.992 182.739 108.03 183.328C105.067 183.918 102.346 185.373 100.21 187.509ZM110.801 198.802V186.73C112.913 186.746 114.984 187.311 116.811 188.369C117.766 188.883 118.642 189.531 119.413 190.294C120.538 191.412 121.431 192.742 122.041 194.207C122.65 195.672 122.963 197.243 122.963 198.829C122.962 200.416 122.648 201.986 122.038 203.451C121.428 204.915 120.534 206.244 119.408 207.362C117.902 208.855 116.027 209.923 113.975 210.458C111.933 211.03 109.773 211.03 107.731 210.458C106.713 210.195 105.734 209.801 104.817 209.287L110.801 198.802Z" fill="white"/>
</g>
<path d="M151.154 76H109.604L122.249 83.727L151.154 76Z" fill="url(#paint6_linear_1_25)"/>
<path d="M151.154 76L124.486 88.332L128.987 104.047L151.154 76Z" fill="url(#paint7_linear_1_25)"/>
<path d="M117.435 95.279L124.486 88.332L151.154 76L117.435 95.279Z" fill="url(#paint8_linear_1_25)"/>
<path d="M117.435 95.279L124.486 88.332L151.154 76L122.249 83.727L117.435 95.279Z" fill="#0F1A1C"/>
</g>
<defs>
<filter id="filter0_f_1_25" x="232.807" y="109.723" width="101.558" height="100.65" filterUnits="userSpaceOnUse" color-interpolation-filters="sRGB">
<feFlood flood-opacity="0" result="BackgroundImageFix"/>
<feBlend mode="normal" in="SourceGraphic" in2="BackgroundImageFix" result="shape"/>
<feGaussianBlur stdDeviation="10" result="effect1_foregroundBlur_1_25"/>
</filter>
<linearGradient id="paint0_linear_1_25" x1="9358.08" y1="25855.9" x2="29683.7" y2="87.6414" gradientUnits="userSpaceOnUse">
<stop stop-color="#0F1A1C"/>
<stop offset="1" stop-color="#0F1A1C" stop-opacity="0"/>
</linearGradient>
<linearGradient id="paint1_linear_1_25" x1="47.397" y1="107.95" x2="47.397" y2="281.395" gradientUnits="userSpaceOnUse">
<stop stop-color="#0F1A1C"/>
<stop offset="1" stop-color="#0F1A1C"/>
</linearGradient>
<linearGradient id="paint2_linear_1_25" x1="248.43" y1="128.061" x2="248.43" y2="169.533" gradientUnits="userSpaceOnUse">
<stop stop-color="#0F1A1C"/>
<stop offset="1" stop-color="#0F1A1C"/>
</linearGradient>
<linearGradient id="paint3_linear_1_25" x1="248.43" y1="128.061" x2="248.43" y2="169.533" gradientUnits="userSpaceOnUse">
<stop stop-color="#0F1A1C"/>
<stop offset="1" stop-color="#0F1A1C"/>
</linearGradient>
<linearGradient id="paint4_linear_1_25" x1="248.43" y1="128.061" x2="248.43" y2="169.533" gradientUnits="userSpaceOnUse">
<stop stop-color="#0F1A1C"/>
<stop offset="1" stop-color="#0F1A1C"/>
</linearGradient>
<linearGradient id="paint5_linear_1_25" x1="248.43" y1="128.061" x2="248.43" y2="169.533" gradientUnits="userSpaceOnUse">
<stop stop-color="#0F1A1C"/>
<stop offset="1" stop-color="#0F1A1C"/>
</linearGradient>
<linearGradient id="paint6_linear_1_25" x1="109.604" y1="76" x2="109.604" y2="104.047" gradientUnits="userSpaceOnUse">
<stop stop-color="#0F1A1C"/>
<stop offset="1" stop-color="#0F1A1C"/>
</linearGradient>
<linearGradient id="paint7_linear_1_25" x1="109.604" y1="76" x2="109.604" y2="104.047" gradientUnits="userSpaceOnUse">
<stop stop-color="#0F1A1C"/>
<stop offset="1" stop-color="#0F1A1C"/>
</linearGradient>
<linearGradient id="paint8_linear_1_25" x1="109.604" y1="76" x2="109.604" y2="104.047" gradientUnits="userSpaceOnUse">
<stop stop-color="#0F1A1C"/>
<stop offset="1" stop-color="#0F1A1C"/>
</linearGradient>
<clipPath id="clip0_1_25">
<rect width="480" height="360" fill="white"/>
</clipPath>
</defs>
</svg>
